<?xml version="1.0" encoding="utf-8" standalone="no"?>
<!DOCTYPE svg PUBLIC "-//W3C//DTD SVG 1.1//EN"
  "http://www.w3.org/Graphics/SVG/1.1/DTD/svg11.dtd">
<svg xmlns:xlink="http://www.w3.org/1999/xlink" width="446.4pt" height="446.4pt" viewBox="0 0 446.4 446.4" xmlns="http://www.w3.org/2000/svg" version="1.1">
 <metadata>
  <rdf:RDF xmlns:dc="http://purl.org/dc/elements/1.1/" xmlns:cc="http://creativecommons.org/ns#" xmlns:rdf="http://www.w3.org/1999/02/22-rdf-syntax-ns#">
   <cc:Work>
    <dc:type rdf:resource="http://purl.org/dc/dcmitype/StillImage"/>
    <dc:date>2026-03-01T01:58:06.748024</dc:date>
    <dc:format>image/svg+xml</dc:format>
    <dc:creator>
     <cc:Agent>
      <dc:title>Matplotlib v3.10.8, https://matplotlib.org/</dc:title>
     </cc:Agent>
    </dc:creator>
   </cc:Work>
  </rdf:RDF>
 </metadata>
 <defs>
  <style type="text/css">*{stroke-linejoin: round; stroke-linecap: butt}</style>
 </defs>
 <g id="figure_1">
  <g id="patch_1">
   <path d="M 0 446.4 
L 446.4 446.4 
L 446.4 0 
L 0 0 
L 0 446.4 
z
" style="fill: none"/>
  </g>
  <g id="axes_1">
   <g id="line2d_1">
    <path d="M 403.2 223.2 
L 403.08745 216.835623 
L 402.749941 210.479205 
L 402.187895 204.138695 
L 401.402015 197.822023 
L 400.393284 191.537087 
L 399.162963 185.291747 
L 397.712591 179.093813 
L 396.043981 172.951037 
L 394.15922 166.8711 
L 392.060666 160.861605 
L 389.750942 154.930067 
L 387.232937 149.083905 
L 384.5098 143.330429 
L 381.584937 137.676834 
L 378.462004 132.130191 
L 375.144908 126.697436 
L 371.637796 121.385362 
L 367.945055 116.200612 
L 364.071303 111.149672 
L 360.021383 106.238856 
L 355.800361 101.474307 
L 351.413514 96.861982 
L 346.86633 92.40765 
L 342.164494 88.116881 
L 337.313887 83.99504 
L 332.320574 80.047283 
L 327.1908 76.278546 
L 321.93098 72.693543 
L 316.547691 69.296756 
L 311.047666 66.092433 
L 305.437782 63.084582 
L 299.725056 60.276964 
L 293.916631 57.67309 
L 288.019771 55.276216 
L 282.041851 53.08934 
L 275.990345 51.115197 
L 269.872822 49.356255 
L 263.696933 47.814714 
L 257.4704 46.492502 
L 251.201009 45.391273 
L 244.896602 44.512403 
L 238.565063 43.856991 
L 232.214308 43.425858 
L 225.852281 43.219542 
L 219.486936 43.238301 
L 213.126235 43.482112 
L 206.778132 43.95067 
L 200.450565 44.643389 
L 194.151448 45.559403 
L 187.888658 46.697566 
L 181.670026 48.056455 
L 175.50333 49.634371 
L 169.396281 51.42934 
L 163.356516 53.439117 
L 157.391589 55.661189 
L 151.508959 58.092778 
L 145.715983 60.730843 
L 140.019904 63.572084 
L 134.427847 66.612948 
L 128.946804 69.849633 
L 123.58363 73.278091 
L 118.345032 76.894034 
L 113.23756 80.692941 
L 108.267602 84.670061 
L 103.441374 88.82042 
L 98.76491 93.138828 
L 94.244059 97.619885 
L 89.884475 102.257986 
L 85.691609 107.047332 
L 81.670704 111.981933 
L 77.82679 117.055618 
L 74.164673 122.262043 
L 70.688932 127.594696 
L 67.403915 133.046908 
L 64.313729 138.611862 
L 61.42224 144.282598 
L 58.733062 150.052025 
L 56.249559 155.912927 
L 53.974836 161.857975 
L 51.911739 167.879735 
L 50.062847 173.970676 
L 48.430473 180.12318 
L 47.016657 186.329555 
L 45.823168 192.582038 
L 44.851499 198.872811 
L 44.102864 205.194006 
L 43.5782 211.537718 
L 43.278162 217.896015 
L 43.203127 224.260944 
L 43.353187 230.624547 
L 43.728156 236.978866 
L 44.327564 243.315952 
L 45.150661 249.627883 
L 46.196419 255.906765 
L 47.46353 262.144744 
L 48.950409 268.334021 
L 50.655196 274.466856 
L 52.57576 280.535579 
L 54.709698 286.5326 
L 57.054343 292.450421 
L 59.606762 298.28164 
L 62.363764 304.018965 
L 65.3219 309.655222 
L 68.477471 315.183362 
L 71.826531 320.596472 
L 75.364891 325.887782 
L 79.088128 331.050676 
L 82.991584 336.078696 
L 87.070379 340.965556 
L 91.31941 345.705143 
L 95.733366 350.291531 
L 100.306726 354.718984 
L 105.033771 358.981966 
L 109.908588 363.075144 
L 114.925083 366.993402 
L 120.076982 370.731837 
L 125.357841 374.285777 
L 130.761057 377.650775 
L 136.279874 380.822624 
L 141.907388 383.797358 
L 147.636564 386.571255 
L 153.460235 389.140849 
L 159.37112 391.502924 
L 165.361827 393.654527 
L 171.424863 395.592967 
L 177.552647 397.315821 
L 183.737515 398.820934 
L 189.971734 400.106422 
L 196.247506 401.17068 
L 202.556983 402.012376 
L 208.892276 402.630457 
L 215.245462 403.024151 
L 221.608595 403.192965 
L 227.973718 403.136688 
L 234.332871 402.85539 
L 240.678103 402.349423 
L 247.001476 401.619421 
L 253.295085 400.666295 
L 259.551058 399.491238 
L 265.761573 398.095719 
L 271.918861 396.481484 
L 278.015224 394.65055 
L 284.043038 392.605209 
L 289.994764 390.348017 
L 295.86296 387.881797 
L 301.640287 385.209634 
L 307.31952 382.334869 
L 312.893556 379.261097 
L 318.355427 375.992162 
L 323.6983 372.532152 
L 328.915494 368.885395 
L 334.000486 365.05645 
L 338.946916 361.050105 
L 343.748597 356.871372 
L 348.399526 352.525475 
L 352.893887 348.01785 
L 357.226058 343.354133 
L 361.390622 338.540157 
L 365.382372 333.581942 
L 369.196314 328.485689 
L 372.827681 323.257769 
L 376.271929 317.904723 
L 379.524753 312.433242 
L 382.582085 306.850171 
L 385.4401 301.162491 
L 388.095225 295.377314 
L 390.54414 289.501876 
L 392.783782 283.543523 
L 394.811351 277.509708 
L 396.62431 271.407975 
L 398.220392 265.245956 
L 399.597602 259.031356 
L 400.754217 252.771947 
L 401.688791 246.475557 
L 402.400155 240.150059 
L 402.887419 233.803364 
L 403.149975 227.443409 
L 403.2 223.2 
L 403.2 223.2 
" clip-path="url(#pec936b124b)" style="fill: none; stroke: #ffffff; stroke-width: 10; stroke-linecap: square"/>
   </g>
   <g id="line2d_2">
    <path d="M 403.2 223.2 
L 403.08745 216.835623 
L 402.749941 210.479205 
L 402.187895 204.138695 
L 401.402015 197.822023 
L 400.393284 191.537087 
L 399.162963 185.291747 
L 397.712591 179.093813 
L 396.043981 172.951037 
L 394.15922 166.8711 
L 392.060666 160.861605 
L 389.750942 154.930067 
L 387.232937 149.083905 
L 384.5098 143.330429 
L 381.584937 137.676834 
L 378.462004 132.130191 
L 375.144908 126.697436 
L 371.637796 121.385362 
L 367.945055 116.200612 
L 364.071303 111.149672 
L 360.021383 106.238856 
L 355.800361 101.474307 
L 351.413514 96.861982 
L 346.86633 92.40765 
L 342.164494 88.116881 
L 337.313887 83.99504 
L 332.320574 80.047283 
L 327.1908 76.278546 
L 321.93098 72.693543 
L 316.547691 69.296756 
L 311.047666 66.092433 
L 305.437782 63.084582 
L 299.725056 60.276964 
L 293.916631 57.67309 
L 288.019771 55.276216 
L 282.041851 53.08934 
L 275.990345 51.115197 
L 269.872822 49.356255 
L 263.696933 47.814714 
L 257.4704 46.492502 
L 251.201009 45.391273 
L 244.896602 44.512403 
L 238.565063 43.856991 
L 232.214308 43.425858 
L 225.852281 43.219542 
L 219.486936 43.238301 
L 213.126235 43.482112 
L 206.778132 43.95067 
L 200.450565 44.643389 
L 194.151448 45.559403 
L 187.888658 46.697566 
L 181.670026 48.056455 
L 175.50333 49.634371 
L 169.396281 51.42934 
L 163.356516 53.439117 
L 157.391589 55.661189 
L 151.508959 58.092778 
L 145.715983 60.730843 
L 140.019904 63.572084 
L 134.427847 66.612948 
L 128.946804 69.849633 
L 123.58363 73.278091 
L 118.345032 76.894034 
L 113.23756 80.692941 
L 108.267602 84.670061 
L 103.441374 88.82042 
L 98.76491 93.138828 
L 94.244059 97.619885 
L 89.884475 102.257986 
L 85.691609 107.047332 
L 81.670704 111.981933 
L 77.82679 117.055618 
L 74.164673 122.262043 
L 70.688932 127.594696 
L 67.403915 133.046908 
L 64.313729 138.611862 
L 61.42224 144.282598 
L 58.733062 150.052025 
L 56.249559 155.912927 
L 53.974836 161.857975 
L 51.911739 167.879735 
L 50.062847 173.970676 
L 48.430473 180.12318 
L 47.016657 186.329555 
L 45.823168 192.582038 
L 44.851499 198.872811 
L 44.102864 205.194006 
L 43.5782 211.537718 
L 43.278162 217.896015 
L 43.203127 224.260944 
L 43.353187 230.624547 
L 43.728156 236.978866 
L 44.327564 243.315952 
L 45.150661 249.627883 
L 46.196419 255.906765 
L 47.46353 262.144744 
L 48.950409 268.334021 
L 50.655196 274.466856 
L 52.57576 280.535579 
L 54.709698 286.5326 
L 57.054343 292.450421 
L 59.606762 298.28164 
L 62.363764 304.018965 
L 65.3219 309.655222 
L 68.477471 315.183362 
L 71.826531 320.596472 
L 75.364891 325.887782 
L 79.088128 331.050676 
L 82.991584 336.078696 
L 87.070379 340.965556 
L 91.31941 345.705143 
L 95.733366 350.291531 
L 100.306726 354.718984 
L 105.033771 358.981966 
L 109.908588 363.075144 
L 114.925083 366.993402 
L 120.076982 370.731837 
L 125.357841 374.285777 
L 130.761057 377.650775 
L 136.279874 380.822624 
L 141.907388 383.797358 
L 147.636564 386.571255 
L 153.460235 389.140849 
L 159.37112 391.502924 
L 165.361827 393.654527 
L 171.424863 395.592967 
L 177.552647 397.315821 
L 183.737515 398.820934 
L 189.971734 400.106422 
L 196.247506 401.17068 
L 202.556983 402.012376 
L 208.892276 402.630457 
L 215.245462 403.024151 
L 221.608595 403.192965 
L 227.973718 403.136688 
L 234.332871 402.85539 
L 240.678103 402.349423 
L 247.001476 401.619421 
L 253.295085 400.666295 
L 259.551058 399.491238 
L 265.761573 398.095719 
L 271.918861 396.481484 
L 278.015224 394.65055 
L 284.043038 392.605209 
L 289.994764 390.348017 
L 295.86296 387.881797 
L 301.640287 385.209634 
L 307.31952 382.334869 
L 312.893556 379.261097 
L 318.355427 375.992162 
L 323.6983 372.532152 
L 328.915494 368.885395 
L 334.000486 365.05645 
L 338.946916 361.050105 
L 343.748597 356.871372 
L 348.399526 352.525475 
L 352.893887 348.01785 
L 357.226058 343.354133 
L 361.390622 338.540157 
L 365.382372 333.581942 
L 369.196314 328.485689 
L 372.827681 323.257769 
L 376.271929 317.904723 
L 379.524753 312.433242 
L 382.582085 306.850171 
L 385.4401 301.162491 
L 388.095225 295.377314 
L 390.54414 289.501876 
L 392.783782 283.543523 
L 394.811351 277.509708 
L 396.62431 271.407975 
L 398.220392 265.245956 
L 399.597602 259.031356 
L 400.754217 252.771947 
L 401.688791 246.475557 
L 402.400155 240.150059 
L 402.887419 233.803364 
L 403.149975 227.443409 
L 403.2 223.2 
L 403.2 223.2 
" clip-path="url(#pec936b124b)" style="fill: none; stroke: #ffffff; stroke-width: 10; stroke-linecap: square"/>
   </g>
   <g id="line2d_3">
    <path d="M 223.2 43.2 
L 223.2 25.2 
" clip-path="url(#pec936b124b)" style="fill: none; stroke: #ffffff; stroke-width: 10; stroke-linecap: square"/>
   </g>
   <g id="line2d_4">
    <path d="M 394.026617 279.92977 
L 411.109279 285.602747 
" clip-path="url(#pec936b124b)" style="fill: none; stroke: #ffffff; stroke-width: 10; stroke-linecap: square"/>
   </g>
   <g id="line2d_5">
    <path d="M 248.986227 401.343399 
L 251.56485 419.157739 
" clip-path="url(#pec936b124b)" style="fill: none; stroke: #ffffff; stroke-width: 10; stroke-linecap: square"/>
   </g>
   <g id="line2d_6">
    <path d="M 115.522726 367.44148 
L 104.754998 381.865628 
" clip-path="url(#pec936b124b)" style="fill: none; stroke: #ffffff; stroke-width: 10; stroke-linecap: square"/>
   </g>
   <g id="line2d_7">
    <path d="M 52.373383 279.92977 
L 35.290721 285.602747 
" clip-path="url(#pec936b124b)" style="fill: none; stroke: #ffffff; stroke-width: 10; stroke-linecap: square"/>
   </g>
   <g id="line2d_8">
    <path d="M 46.008439 191.527444 
L 28.289283 188.360188 
" clip-path="url(#pec936b124b)" style="fill: none; stroke: #ffffff; stroke-width: 10; stroke-linecap: square"/>
   </g>
   <g id="line2d_9">
    <path d="M 74.387849 121.933304 
L 59.506634 111.806634 
" clip-path="url(#pec936b124b)" style="fill: none; stroke: #ffffff; stroke-width: 10; stroke-linecap: square"/>
   </g>
   <g id="line2d_10">
    <path d="M 120.245683 75.550386 
L 109.950251 60.785424 
" clip-path="url(#pec936b124b)" style="fill: none; stroke: #ffffff; stroke-width: 10; stroke-linecap: square"/>
   </g>
   <g id="line2d_11">
    <path d="M 172.159488 50.588106 
L 167.055436 33.326916 
" clip-path="url(#pec936b124b)" style="fill: none; stroke: #ffffff; stroke-width: 10; stroke-linecap: square"/>
   </g>
   <g id="line2d_12">
    <path d="M 269.488052 49.25341 
L 269.488052 49.25341 
" clip-path="url(#pec936b124b)" style="fill: none"/>
   </g>
   <g id="line2d_13">
    <path d="M 309.103067 65.020788 
L 309.103067 65.020788 
" clip-path="url(#pec936b124b)" style="fill: none"/>
   </g>
   <g id="line2d_14">
    <path d="M 341.337106 87.392695 
L 341.337106 87.392695 
" clip-path="url(#pec936b124b)" style="fill: none"/>
   </g>
   <g id="line2d_15">
    <path d="M 366.206257 113.887556 
L 366.206257 113.887556 
" clip-path="url(#pec936b124b)" style="fill: none"/>
   </g>
   <g id="line2d_16">
    <path d="M 384.137708 142.583289 
L 384.137708 142.583289 
" clip-path="url(#pec936b124b)" style="fill: none"/>
   </g>
   <g id="line2d_17">
    <path d="M 395.772549 172.026616 
L 395.772549 172.026616 
" clip-path="url(#pec936b124b)" style="fill: none"/>
   </g>
   <g id="line2d_18">
    <path d="M 401.84357 201.143822 
L 401.84357 201.143822 
" clip-path="url(#pec936b124b)" style="fill: none"/>
   </g>
   <g id="line2d_19">
    <path d="M 403.101236 229.161972 
L 403.101236 229.161972 
" clip-path="url(#pec936b124b)" style="fill: none"/>
   </g>
   <g id="line2d_20">
    <path d="M 400.270421 255.542941 
L 400.270421 255.542941 
" clip-path="url(#pec936b124b)" style="fill: none"/>
   </g>
   <g id="line2d_21">
    <path d="M 384.98438 302.103831 
L 384.98438 302.103831 
" clip-path="url(#pec936b124b)" style="fill: none"/>
   </g>
   <g id="line2d_22">
    <path d="M 373.693317 321.951008 
L 373.693317 321.951008 
" clip-path="url(#pec936b124b)" style="fill: none"/>
   </g>
   <g id="line2d_23">
    <path d="M 360.638622 339.435215 
L 360.638622 339.435215 
" clip-path="url(#pec936b124b)" style="fill: none"/>
   </g>
   <g id="line2d_24">
    <path d="M 346.244214 354.577782 
L 346.244214 354.577782 
" clip-path="url(#pec936b124b)" style="fill: none"/>
   </g>
   <g id="line2d_25">
    <path d="M 330.877274 367.44148 
L 330.877274 367.44148 
" clip-path="url(#pec936b124b)" style="fill: none"/>
   </g>
   <g id="line2d_26">
    <path d="M 314.853399 378.118219 
L 314.853399 378.118219 
" clip-path="url(#pec936b124b)" style="fill: none"/>
   </g>
   <g id="line2d_27">
    <path d="M 298.441888 386.719596 
L 298.441888 386.719596 
" clip-path="url(#pec936b124b)" style="fill: none"/>
   </g>
   <g id="line2d_28">
    <path d="M 281.870906 393.369694 
L 281.870906 393.369694 
" clip-path="url(#pec936b124b)" style="fill: none"/>
   </g>
   <g id="line2d_29">
    <path d="M 265.332331 398.199619 
L 265.332331 398.199619 
" clip-path="url(#pec936b124b)" style="fill: none"/>
   </g>
   <g id="line2d_30">
    <path d="M 232.964898 402.934935 
L 232.964898 402.934935 
" clip-path="url(#pec936b124b)" style="fill: none"/>
   </g>
   <g id="line2d_31">
    <path d="M 217.376528 403.105773 
L 217.376528 403.105773 
" clip-path="url(#pec936b124b)" style="fill: none"/>
   </g>
   <g id="line2d_32">
    <path d="M 202.308419 401.983505 
L 202.308419 401.983505 
" clip-path="url(#pec936b124b)" style="fill: none"/>
   </g>
   <g id="line2d_33">
    <path d="M 187.829854 399.690659 
L 187.829854 399.690659 
" clip-path="url(#pec936b124b)" style="fill: none"/>
   </g>
   <g id="line2d_34">
    <path d="M 173.994622 396.34396 
L 173.994622 396.34396 
" clip-path="url(#pec936b124b)" style="fill: none"/>
   </g>
   <g id="line2d_35">
    <path d="M 160.843226 392.05388 
L 160.843226 392.05388 
" clip-path="url(#pec936b124b)" style="fill: none"/>
   </g>
   <g id="line2d_36">
    <path d="M 148.40482 386.924406 
L 148.40482 386.924406 
" clip-path="url(#pec936b124b)" style="fill: none"/>
   </g>
   <g id="line2d_37">
    <path d="M 136.698892 381.052964 
L 136.698892 381.052964 
" clip-path="url(#pec936b124b)" style="fill: none"/>
   </g>
   <g id="line2d_38">
    <path d="M 125.736736 374.530473 
L 125.736736 374.530473 
" clip-path="url(#pec936b124b)" style="fill: none"/>
   </g>
   <g id="line2d_39">
    <path d="M 106.055421 359.864361 
L 106.055421 359.864361 
" clip-path="url(#pec936b124b)" style="fill: none"/>
   </g>
   <g id="line2d_40">
    <path d="M 97.328527 351.871568 
L 97.328527 351.871568 
" clip-path="url(#pec936b124b)" style="fill: none"/>
   </g>
   <g id="line2d_41">
    <path d="M 89.331723 343.529899 
L 89.331723 343.529899 
" clip-path="url(#pec936b124b)" style="fill: none"/>
   </g>
   <g id="line2d_42">
    <path d="M 82.051379 334.900791 
L 82.051379 334.900791 
" clip-path="url(#pec936b124b)" style="fill: none"/>
   </g>
   <g id="line2d_43">
    <path d="M 75.471169 326.040617 
L 75.471169 326.040617 
" clip-path="url(#pec936b124b)" style="fill: none"/>
   </g>
   <g id="line2d_44">
    <path d="M 69.572611 317.000988 
L 69.572611 317.000988 
" clip-path="url(#pec936b124b)" style="fill: none"/>
   </g>
   <g id="line2d_45">
    <path d="M 64.335514 307.829044 
L 64.335514 307.829044 
" clip-path="url(#pec936b124b)" style="fill: none"/>
   </g>
   <g id="line2d_46">
    <path d="M 59.738378 298.567753 
L 59.738378 298.567753 
" clip-path="url(#pec936b124b)" style="fill: none"/>
   </g>
   <g id="line2d_47">
    <path d="M 55.758724 289.256181 
L 55.758724 289.256181 
" clip-path="url(#pec936b124b)" style="fill: none"/>
   </g>
   <g id="line2d_48">
    <path d="M 49.558739 270.62059 
L 49.558739 270.62059 
" clip-path="url(#pec936b124b)" style="fill: none"/>
   </g>
   <g id="line2d_49">
    <path d="M 47.290936 261.357584 
L 47.290936 261.357584 
" clip-path="url(#pec936b124b)" style="fill: none"/>
   </g>
   <g id="line2d_50">
    <path d="M 45.546054 252.166799 
L 45.546054 252.166799 
" clip-path="url(#pec936b124b)" style="fill: none"/>
   </g>
   <g id="line2d_51">
    <path d="M 44.300253 243.071601 
L 44.300253 243.071601 
" clip-path="url(#pec936b124b)" style="fill: none"/>
   </g>
   <g id="line2d_52">
    <path d="M 43.529899 234.092882 
L 43.529899 234.092882 
" clip-path="url(#pec936b124b)" style="fill: none"/>
   </g>
   <g id="line2d_53">
    <path d="M 43.211665 225.249249 
L 43.211665 225.249249 
" clip-path="url(#pec936b124b)" style="fill: none"/>
   </g>
   <g id="line2d_54">
    <path d="M 43.322616 216.557204 
L 43.322616 216.557204 
" clip-path="url(#pec936b124b)" style="fill: none"/>
   </g>
   <g id="line2d_55">
    <path d="M 43.840275 208.031308 
L 43.840275 208.031308 
" clip-path="url(#pec936b124b)" style="fill: none"/>
   </g>
   <g id="line2d_56">
    <path d="M 44.742684 199.684342 
L 44.742684 199.684342 
" clip-path="url(#pec936b124b)" style="fill: none"/>
   </g>
   <g id="line2d_57">
    <path d="M 47.616735 183.57025 
L 47.616735 183.57025 
" clip-path="url(#pec936b124b)" style="fill: none"/>
   </g>
   <g id="line2d_58">
    <path d="M 49.547381 175.821017 
L 49.547381 175.821017 
" clip-path="url(#pec936b124b)" style="fill: none"/>
   </g>
   <g id="line2d_59">
    <path d="M 51.780826 168.286734 
L 51.780826 168.286734 
" clip-path="url(#pec936b124b)" style="fill: none"/>
   </g>
   <g id="line2d_60">
    <path d="M 54.298164 160.973238 
L 54.298164 160.973238 
" clip-path="url(#pec936b124b)" style="fill: none"/>
   </g>
   <g id="line2d_61">
    <path d="M 57.081148 153.885306 
L 57.081148 153.885306 
" clip-path="url(#pec936b124b)" style="fill: none"/>
   </g>
   <g id="line2d_62">
    <path d="M 60.112184 147.026748 
L 60.112184 147.026748 
" clip-path="url(#pec936b124b)" style="fill: none"/>
   </g>
   <g id="line2d_63">
    <path d="M 63.374337 140.400498 
L 63.374337 140.400498 
" clip-path="url(#pec936b124b)" style="fill: none"/>
   </g>
   <g id="line2d_64">
    <path d="M 66.851322 134.008684 
L 66.851322 134.008684 
" clip-path="url(#pec936b124b)" style="fill: none"/>
   </g>
   <g id="line2d_65">
    <path d="M 70.527495 127.852707 
L 70.527495 127.852707 
" clip-path="url(#pec936b124b)" style="fill: none"/>
   </g>
   <g id="line2d_66">
    <path d="M 78.417996 116.250614 
L 78.417996 116.250614 
" clip-path="url(#pec936b124b)" style="fill: none"/>
   </g>
   <g id="line2d_67">
    <path d="M 82.604157 110.804231 
L 82.604157 110.804231 
" clip-path="url(#pec936b124b)" style="fill: none"/>
   </g>
   <g id="line2d_68">
    <path d="M 86.933151 105.593258 
L 86.933151 105.593258 
" clip-path="url(#pec936b124b)" style="fill: none"/>
   </g>
   <g id="line2d_69">
    <path d="M 91.392372 100.616358 
L 91.392372 100.616358 
" clip-path="url(#pec936b124b)" style="fill: none"/>
   </g>
   <g id="line2d_70">
    <path d="M 95.969782 95.871795 
L 95.969782 95.871795 
" clip-path="url(#pec936b124b)" style="fill: none"/>
   </g>
   <g id="line2d_71">
    <path d="M 100.653889 91.357477 
L 100.653889 91.357477 
" clip-path="url(#pec936b124b)" style="fill: none"/>
   </g>
   <g id="line2d_72">
    <path d="M 105.433732 87.070994 
L 105.433732 87.070994 
" clip-path="url(#pec936b124b)" style="fill: none"/>
   </g>
   <g id="line2d_73">
    <path d="M 110.298865 83.009652 
L 110.298865 83.009652 
" clip-path="url(#pec936b124b)" style="fill: none"/>
   </g>
   <g id="line2d_74">
    <path d="M 115.239338 79.170505 
L 115.239338 79.170505 
" clip-path="url(#pec936b124b)" style="fill: none"/>
   </g>
   <g id="line2d_75">
    <path d="M 125.308894 72.145932 
L 125.308894 72.145932 
" clip-path="url(#pec936b124b)" style="fill: none"/>
   </g>
   <g id="line2d_76">
    <path d="M 130.420414 68.953611 
L 130.420414 68.953611 
" clip-path="url(#pec936b124b)" style="fill: none"/>
   </g>
   <g id="line2d_77">
    <path d="M 135.572115 65.969743 
L 135.572115 65.969743 
" clip-path="url(#pec936b124b)" style="fill: none"/>
   </g>
   <g id="line2d_78">
    <path d="M 140.756284 63.19052 
L 140.756284 63.19052 
" clip-path="url(#pec936b124b)" style="fill: none"/>
   </g>
   <g id="line2d_79">
    <path d="M 145.965606 60.612029 
L 145.965606 60.612029 
" clip-path="url(#pec936b124b)" style="fill: none"/>
   </g>
   <g id="line2d_80">
    <path d="M 151.19315 58.230265 
L 151.19315 58.230265 
" clip-path="url(#pec936b124b)" style="fill: none"/>
   </g>
   <g id="line2d_81">
    <path d="M 156.432353 56.04115 
L 156.432353 56.04115 
" clip-path="url(#pec936b124b)" style="fill: none"/>
   </g>
   <g id="line2d_82">
    <path d="M 161.677003 54.040546 
L 161.677003 54.040546 
" clip-path="url(#pec936b124b)" style="fill: none"/>
   </g>
   <g id="line2d_83">
    <path d="M 166.92123 52.22427 
L 166.92123 52.22427 
" clip-path="url(#pec936b124b)" style="fill: none"/>
   </g>
   <g id="line2d_84">
    <path d="M 177.38654 49.127811 
L 177.38654 49.127811 
" clip-path="url(#pec936b124b)" style="fill: none"/>
   </g>
   <g id="line2d_85">
    <path d="M 182.59745 47.839135 
L 182.59745 47.839135 
" clip-path="url(#pec936b124b)" style="fill: none"/>
   </g>
   <g id="line2d_86">
    <path d="M 187.787567 46.717821 
L 187.787567 46.717821 
" clip-path="url(#pec936b124b)" style="fill: none"/>
   </g>
   <g id="line2d_87">
    <path d="M 192.952513 45.759617 
L 192.952513 45.759617 
" clip-path="url(#pec936b124b)" style="fill: none"/>
   </g>
   <g id="line2d_88">
    <path d="M 198.088172 44.960285 
L 198.088172 44.960285 
" clip-path="url(#pec936b124b)" style="fill: none"/>
   </g>
   <g id="line2d_89">
    <path d="M 203.190678 44.315604 
L 203.190678 44.315604 
" clip-path="url(#pec936b124b)" style="fill: none"/>
   </g>
   <g id="line2d_90">
    <path d="M 208.256403 43.821381 
L 208.256403 43.821381 
" clip-path="url(#pec936b124b)" style="fill: none"/>
   </g>
   <g id="line2d_91">
    <path d="M 213.281951 43.473451 
L 213.281951 43.473451 
" clip-path="url(#pec936b124b)" style="fill: none"/>
   </g>
   <g id="line2d_92">
    <path d="M 218.26414 43.267687 
L 218.26414 43.267687 
" clip-path="url(#pec936b124b)" style="fill: none"/>
   </g>
   <g id="line2d_93">
    <path d="M 223.2 43.2 
L 223.2 79.2 
" clip-path="url(#pec936b124b)" style="fill: none; stroke: #ffffff; stroke-width: 10; stroke-linecap: square"/>
   </g>
   <g id="line2d_94">
    <path d="M 394.026617 279.92977 
L 359.861294 268.583816 
" clip-path="url(#pec936b124b)" style="fill: none; stroke: #ffffff; stroke-width: 10; stroke-linecap: square"/>
   </g>
   <g id="line2d_95">
    <path d="M 248.986227 401.343399 
L 243.828982 365.714719 
" clip-path="url(#pec936b124b)" style="fill: none; stroke: #ffffff; stroke-width: 10; stroke-linecap: square"/>
   </g>
   <g id="line2d_96">
    <path d="M 115.522726 367.44148 
L 137.05818 338.593184 
" clip-path="url(#pec936b124b)" style="fill: none; stroke: #ffffff; stroke-width: 10; stroke-linecap: square"/>
   </g>
   <g id="line2d_97">
    <path d="M 52.373383 279.92977 
L 86.538706 268.583816 
" clip-path="url(#pec936b124b)" style="fill: none; stroke: #ffffff; stroke-width: 10; stroke-linecap: square"/>
   </g>
   <g id="line2d_98">
    <path d="M 46.008439 191.527444 
L 81.446751 197.861955 
" clip-path="url(#pec936b124b)" style="fill: none; stroke: #ffffff; stroke-width: 10; stroke-linecap: square"/>
   </g>
   <g id="line2d_99">
    <path d="M 74.387849 121.933304 
L 104.150279 142.186643 
" clip-path="url(#pec936b124b)" style="fill: none; stroke: #ffffff; stroke-width: 10; stroke-linecap: square"/>
   </g>
   <g id="line2d_100">
    <path d="M 120.245683 75.550386 
L 140.836546 105.080309 
" clip-path="url(#pec936b124b)" style="fill: none; stroke: #ffffff; stroke-width: 10; stroke-linecap: square"/>
   </g>
   <g id="line2d_101">
    <path d="M 172.159488 50.588106 
L 182.36759 85.110484 
" clip-path="url(#pec936b124b)" style="fill: none; stroke: #ffffff; stroke-width: 10; stroke-linecap: square"/>
   </g>
   <g id="line2d_102">
    <path d="M 269.488052 49.25341 
L 269.488052 49.25341 
" clip-path="url(#pec936b124b)" style="fill: none"/>
   </g>
   <g id="line2d_103">
    <path d="M 309.103067 65.020788 
L 309.103067 65.020788 
" clip-path="url(#pec936b124b)" style="fill: none"/>
   </g>
   <g id="line2d_104">
    <path d="M 341.337106 87.392695 
L 341.337106 87.392695 
" clip-path="url(#pec936b124b)" style="fill: none"/>
   </g>
   <g id="line2d_105">
    <path d="M 366.206257 113.887556 
L 366.206257 113.887556 
" clip-path="url(#pec936b124b)" style="fill: none"/>
   </g>
   <g id="line2d_106">
    <path d="M 384.137708 142.583289 
L 384.137708 142.583289 
" clip-path="url(#pec936b124b)" style="fill: none"/>
   </g>
   <g id="line2d_107">
    <path d="M 395.772549 172.026616 
L 395.772549 172.026616 
" clip-path="url(#pec936b124b)" style="fill: none"/>
   </g>
   <g id="line2d_108">
    <path d="M 401.84357 201.143822 
L 401.84357 201.143822 
" clip-path="url(#pec936b124b)" style="fill: none"/>
   </g>
   <g id="line2d_109">
    <path d="M 403.101236 229.161972 
L 403.101236 229.161972 
" clip-path="url(#pec936b124b)" style="fill: none"/>
   </g>
   <g id="line2d_110">
    <path d="M 400.270421 255.542941 
L 400.270421 255.542941 
" clip-path="url(#pec936b124b)" style="fill: none"/>
   </g>
   <g id="line2d_111">
    <path d="M 384.98438 302.103831 
L 384.98438 302.103831 
" clip-path="url(#pec936b124b)" style="fill: none"/>
   </g>
   <g id="line2d_112">
    <path d="M 373.693317 321.951008 
L 373.693317 321.951008 
" clip-path="url(#pec936b124b)" style="fill: none"/>
   </g>
   <g id="line2d_113">
    <path d="M 360.638622 339.435215 
L 360.638622 339.435215 
" clip-path="url(#pec936b124b)" style="fill: none"/>
   </g>
   <g id="line2d_114">
    <path d="M 346.244214 354.577782 
L 346.244214 354.577782 
" clip-path="url(#pec936b124b)" style="fill: none"/>
   </g>
   <g id="line2d_115">
    <path d="M 330.877274 367.44148 
L 330.877274 367.44148 
" clip-path="url(#pec936b124b)" style="fill: none"/>
   </g>
   <g id="line2d_116">
    <path d="M 314.853399 378.118219 
L 314.853399 378.118219 
" clip-path="url(#pec936b124b)" style="fill: none"/>
   </g>
   <g id="line2d_117">
    <path d="M 298.441888 386.719596 
L 298.441888 386.719596 
" clip-path="url(#pec936b124b)" style="fill: none"/>
   </g>
   <g id="line2d_118">
    <path d="M 281.870906 393.369694 
L 281.870906 393.369694 
" clip-path="url(#pec936b124b)" style="fill: none"/>
   </g>
   <g id="line2d_119">
    <path d="M 265.332331 398.199619 
L 265.332331 398.199619 
" clip-path="url(#pec936b124b)" style="fill: none"/>
   </g>
   <g id="line2d_120">
    <path d="M 232.964898 402.934935 
L 232.964898 402.934935 
" clip-path="url(#pec936b124b)" style="fill: none"/>
   </g>
   <g id="line2d_121">
    <path d="M 217.376528 403.105773 
L 217.376528 403.105773 
" clip-path="url(#pec936b124b)" style="fill: none"/>
   </g>
   <g id="line2d_122">
    <path d="M 202.308419 401.983505 
L 202.308419 401.983505 
" clip-path="url(#pec936b124b)" style="fill: none"/>
   </g>
   <g id="line2d_123">
    <path d="M 187.829854 399.690659 
L 187.829854 399.690659 
" clip-path="url(#pec936b124b)" style="fill: none"/>
   </g>
   <g id="line2d_124">
    <path d="M 173.994622 396.34396 
L 173.994622 396.34396 
" clip-path="url(#pec936b124b)" style="fill: none"/>
   </g>
   <g id="line2d_125">
    <path d="M 160.843226 392.05388 
L 160.843226 392.05388 
" clip-path="url(#pec936b124b)" style="fill: none"/>
   </g>
   <g id="line2d_126">
    <path d="M 148.40482 386.924406 
L 148.40482 386.924406 
" clip-path="url(#pec936b124b)" style="fill: none"/>
   </g>
   <g id="line2d_127">
    <path d="M 136.698892 381.052964 
L 136.698892 381.052964 
" clip-path="url(#pec936b124b)" style="fill: none"/>
   </g>
   <g id="line2d_128">
    <path d="M 125.736736 374.530473 
L 125.736736 374.530473 
" clip-path="url(#pec936b124b)" style="fill: none"/>
   </g>
   <g id="line2d_129">
    <path d="M 106.055421 359.864361 
L 106.055421 359.864361 
" clip-path="url(#pec936b124b)" style="fill: none"/>
   </g>
   <g id="line2d_130">
    <path d="M 97.328527 351.871568 
L 97.328527 351.871568 
" clip-path="url(#pec936b124b)" style="fill: none"/>
   </g>
   <g id="line2d_131">
    <path d="M 89.331723 343.529899 
L 89.331723 343.529899 
" clip-path="url(#pec936b124b)" style="fill: none"/>
   </g>
   <g id="line2d_132">
    <path d="M 82.051379 334.900791 
L 82.051379 334.900791 
" clip-path="url(#pec936b124b)" style="fill: none"/>
   </g>
   <g id="line2d_133">
    <path d="M 75.471169 326.040617 
L 75.471169 326.040617 
" clip-path="url(#pec936b124b)" style="fill: none"/>
   </g>
   <g id="line2d_134">
    <path d="M 69.572611 317.000988 
L 69.572611 317.000988 
" clip-path="url(#pec936b124b)" style="fill: none"/>
   </g>
   <g id="line2d_135">
    <path d="M 64.335514 307.829044 
L 64.335514 307.829044 
" clip-path="url(#pec936b124b)" style="fill: none"/>
   </g>
   <g id="line2d_136">
    <path d="M 59.738378 298.567753 
L 59.738378 298.567753 
" clip-path="url(#pec936b124b)" style="fill: none"/>
   </g>
   <g id="line2d_137">
    <path d="M 55.758724 289.256181 
L 55.758724 289.256181 
" clip-path="url(#pec936b124b)" style="fill: none"/>
   </g>
   <g id="line2d_138">
    <path d="M 49.558739 270.62059 
L 49.558739 270.62059 
" clip-path="url(#pec936b124b)" style="fill: none"/>
   </g>
   <g id="line2d_139">
    <path d="M 47.290936 261.357584 
L 47.290936 261.357584 
" clip-path="url(#pec936b124b)" style="fill: none"/>
   </g>
   <g id="line2d_140">
    <path d="M 45.546054 252.166799 
L 45.546054 252.166799 
" clip-path="url(#pec936b124b)" style="fill: none"/>
   </g>
   <g id="line2d_141">
    <path d="M 44.300253 243.071601 
L 44.300253 243.071601 
" clip-path="url(#pec936b124b)" style="fill: none"/>
   </g>
   <g id="line2d_142">
    <path d="M 43.529899 234.092882 
L 43.529899 234.092882 
" clip-path="url(#pec936b124b)" style="fill: none"/>
   </g>
   <g id="line2d_143">
    <path d="M 43.211665 225.249249 
L 43.211665 225.249249 
" clip-path="url(#pec936b124b)" style="fill: none"/>
   </g>
   <g id="line2d_144">
    <path d="M 43.322616 216.557204 
L 43.322616 216.557204 
" clip-path="url(#pec936b124b)" style="fill: none"/>
   </g>
   <g id="line2d_145">
    <path d="M 43.840275 208.031308 
L 43.840275 208.031308 
" clip-path="url(#pec936b124b)" style="fill: none"/>
   </g>
   <g id="line2d_146">
    <path d="M 44.742684 199.684342 
L 44.742684 199.684342 
" clip-path="url(#pec936b124b)" style="fill: none"/>
   </g>
   <g id="line2d_147">
    <path d="M 47.616735 183.57025 
L 47.616735 183.57025 
" clip-path="url(#pec936b124b)" style="fill: none"/>
   </g>
   <g id="line2d_148">
    <path d="M 49.547381 175.821017 
L 49.547381 175.821017 
" clip-path="url(#pec936b124b)" style="fill: none"/>
   </g>
   <g id="line2d_149">
    <path d="M 51.780826 168.286734 
L 51.780826 168.286734 
" clip-path="url(#pec936b124b)" style="fill: none"/>
   </g>
   <g id="line2d_150">
    <path d="M 54.298164 160.973238 
L 54.298164 160.973238 
" clip-path="url(#pec936b124b)" style="fill: none"/>
   </g>
   <g id="line2d_151">
    <path d="M 57.081148 153.885306 
L 57.081148 153.885306 
" clip-path="url(#pec936b124b)" style="fill: none"/>
   </g>
   <g id="line2d_152">
    <path d="M 60.112184 147.026748 
L 60.112184 147.026748 
" clip-path="url(#pec936b124b)" style="fill: none"/>
   </g>
   <g id="line2d_153">
    <path d="M 63.374337 140.400498 
L 63.374337 140.400498 
" clip-path="url(#pec936b124b)" style="fill: none"/>
   </g>
   <g id="line2d_154">
    <path d="M 66.851322 134.008684 
L 66.851322 134.008684 
" clip-path="url(#pec936b124b)" style="fill: none"/>
   </g>
   <g id="line2d_155">
    <path d="M 70.527495 127.852707 
L 70.527495 127.852707 
" clip-path="url(#pec936b124b)" style="fill: none"/>
   </g>
   <g id="line2d_156">
    <path d="M 78.417996 116.250614 
L 78.417996 116.250614 
" clip-path="url(#pec936b124b)" style="fill: none"/>
   </g>
   <g id="line2d_157">
    <path d="M 82.604157 110.804231 
L 82.604157 110.804231 
" clip-path="url(#pec936b124b)" style="fill: none"/>
   </g>
   <g id="line2d_158">
    <path d="M 86.933151 105.593258 
L 86.933151 105.593258 
" clip-path="url(#pec936b124b)" style="fill: none"/>
   </g>
   <g id="line2d_159">
    <path d="M 91.392372 100.616358 
L 91.392372 100.616358 
" clip-path="url(#pec936b124b)" style="fill: none"/>
   </g>
   <g id="line2d_160">
    <path d="M 95.969782 95.871795 
L 95.969782 95.871795 
" clip-path="url(#pec936b124b)" style="fill: none"/>
   </g>
   <g id="line2d_161">
    <path d="M 100.653889 91.357477 
L 100.653889 91.357477 
" clip-path="url(#pec936b124b)" style="fill: none"/>
   </g>
   <g id="line2d_162">
    <path d="M 105.433732 87.070994 
L 105.433732 87.070994 
" clip-path="url(#pec936b124b)" style="fill: none"/>
   </g>
   <g id="line2d_163">
    <path d="M 110.298865 83.009652 
L 110.298865 83.009652 
" clip-path="url(#pec936b124b)" style="fill: none"/>
   </g>
   <g id="line2d_164">
    <path d="M 115.239338 79.170505 
L 115.239338 79.170505 
" clip-path="url(#pec936b124b)" style="fill: none"/>
   </g>
   <g id="line2d_165">
    <path d="M 125.308894 72.145932 
L 125.308894 72.145932 
" clip-path="url(#pec936b124b)" style="fill: none"/>
   </g>
   <g id="line2d_166">
    <path d="M 130.420414 68.953611 
L 130.420414 68.953611 
" clip-path="url(#pec936b124b)" style="fill: none"/>
   </g>
   <g id="line2d_167">
    <path d="M 135.572115 65.969743 
L 135.572115 65.969743 
" clip-path="url(#pec936b124b)" style="fill: none"/>
   </g>
   <g id="line2d_168">
    <path d="M 140.756284 63.19052 
L 140.756284 63.19052 
" clip-path="url(#pec936b124b)" style="fill: none"/>
   </g>
   <g id="line2d_169">
    <path d="M 145.965606 60.612029 
L 145.965606 60.612029 
" clip-path="url(#pec936b124b)" style="fill: none"/>
   </g>
   <g id="line2d_170">
    <path d="M 151.19315 58.230265 
L 151.19315 58.230265 
" clip-path="url(#pec936b124b)" style="fill: none"/>
   </g>
   <g id="line2d_171">
    <path d="M 156.432353 56.04115 
L 156.432353 56.04115 
" clip-path="url(#pec936b124b)" style="fill: none"/>
   </g>
   <g id="line2d_172">
    <path d="M 161.677003 54.040546 
L 161.677003 54.040546 
" clip-path="url(#pec936b124b)" style="fill: none"/>
   </g>
   <g id="line2d_173">
    <path d="M 166.92123 52.22427 
L 166.92123 52.22427 
" clip-path="url(#pec936b124b)" style="fill: none"/>
   </g>
   <g id="line2d_174">
    <path d="M 177.38654 49.127811 
L 177.38654 49.127811 
" clip-path="url(#pec936b124b)" style="fill: none"/>
   </g>
   <g id="line2d_175">
    <path d="M 182.59745 47.839135 
L 182.59745 47.839135 
" clip-path="url(#pec936b124b)" style="fill: none"/>
   </g>
   <g id="line2d_176">
    <path d="M 187.787567 46.717821 
L 187.787567 46.717821 
" clip-path="url(#pec936b124b)" style="fill: none"/>
   </g>
   <g id="line2d_177">
    <path d="M 192.952513 45.759617 
L 192.952513 45.759617 
" clip-path="url(#pec936b124b)" style="fill: none"/>
   </g>
   <g id="line2d_178">
    <path d="M 198.088172 44.960285 
L 198.088172 44.960285 
" clip-path="url(#pec936b124b)" style="fill: none"/>
   </g>
   <g id="line2d_179">
    <path d="M 203.190678 44.315604 
L 203.190678 44.315604 
" clip-path="url(#pec936b124b)" style="fill: none"/>
   </g>
   <g id="line2d_180">
    <path d="M 208.256403 43.821381 
L 208.256403 43.821381 
" clip-path="url(#pec936b124b)" style="fill: none"/>
   </g>
   <g id="line2d_181">
    <path d="M 213.281951 43.473451 
L 213.281951 43.473451 
" clip-path="url(#pec936b124b)" style="fill: none"/>
   </g>
   <g id="line2d_182">
    <path d="M 218.26414 43.267687 
L 218.26414 43.267687 
" clip-path="url(#pec936b124b)" style="fill: none"/>
   </g>
   <g id="line2d_183">
    <path d="M 367.2 223.2 
L 367.088842 217.543053 
L 366.755541 211.894839 
L 366.20061 206.264079 
L 365.424907 200.659465 
L 364.42963 195.089651 
L 363.216314 189.563235 
L 361.786832 184.08875 
L 360.143393 178.674646 
L 358.288533 173.329284 
L 356.225115 168.060914 
L 353.956326 162.877672 
L 351.485667 157.787558 
L 348.816954 152.798432 
L 345.954307 147.917996 
L 342.902144 143.153784 
L 339.665179 138.513153 
L 336.248408 134.003265 
L 332.657106 129.631085 
L 328.896819 125.403362 
L 324.973351 121.326622 
L 320.892759 117.407161 
L 316.661343 113.651028 
L 312.285637 110.064023 
L 307.772395 106.651684 
L 303.128586 103.419279 
L 298.361379 100.371798 
L 293.478133 97.513946 
L 288.486387 94.850136 
L 283.393849 92.384479 
L 278.20838 90.120783 
L 272.937986 88.062541 
L 267.590804 86.212933 
L 262.175089 84.574813 
L 256.699202 83.150711 
L 251.171597 81.942824 
L 245.600808 80.953018 
L 239.995435 80.182821 
L 234.364132 79.633423 
L 228.715594 79.30567 
L 223.05854 79.200069 
L 217.401705 79.316784 
L 211.753821 79.655634 
L 206.123609 80.216096 
L 200.51976 80.997304 
L 194.950926 81.998053 
L 189.425705 83.216797 
L 183.952626 84.651656 
L 178.54014 86.300413 
L 173.196602 88.160524 
L 167.930262 90.229116 
L 162.749251 92.502996 
L 157.661567 94.978653 
L 152.675065 97.652266 
L 147.797443 100.519706 
L 143.036232 103.576548 
L 138.398783 106.81807 
L 133.892254 110.23927 
L 129.523604 113.834865 
L 125.299576 117.599304 
L 121.226693 121.526775 
L 117.311242 125.611215 
L 113.559268 129.846318 
L 109.976563 134.225546 
L 106.56866 138.742138 
L 103.340818 143.38912 
L 100.298022 148.159319 
L 97.444968 153.045371 
L 94.786063 158.03973 
L 92.32541 163.134688 
L 90.066809 168.322378 
L 88.013746 173.594791 
L 86.169391 178.943788 
L 84.536592 184.36111 
L 83.11787 189.838393 
L 81.915414 195.367182 
L 80.931081 200.938941 
L 80.166391 206.545068 
L 79.622525 212.176908 
L 79.300321 217.825765 
L 79.200278 223.48292 
L 79.32255 229.139638 
L 79.666948 234.787186 
L 80.23294 240.416845 
L 81.019653 246.019924 
L 82.025872 251.587772 
L 83.250044 257.111793 
L 84.690278 262.583459 
L 86.344351 267.994323 
L 88.20971 273.336031 
L 90.283475 278.600337 
L 92.562443 283.779112 
L 95.043097 288.864361 
L 97.721607 293.848234 
L 100.593838 298.723037 
L 103.655355 303.481242 
L 106.901432 308.115505 
L 110.327057 312.618671 
L 113.926942 316.983787 
L 117.695528 321.204115 
L 121.626999 325.273138 
L 125.715283 329.184574 
L 129.95407 332.932386 
L 134.336816 336.510787 
L 138.856753 339.914252 
L 143.506904 343.137527 
L 148.28009 346.175636 
L 153.168941 349.023888 
L 158.165911 351.677886 
L 163.263283 354.133533 
L 168.45319 356.387037 
L 173.727617 358.434919 
L 179.078423 360.274018 
L 184.497346 361.901495 
L 189.976021 363.314836 
L 195.505988 364.51186 
L 201.078711 365.490719 
L 206.685587 366.249901 
L 212.317958 366.788235 
L 217.967129 367.104889 
L 223.62438 367.199375 
L 229.280975 367.071546 
L 234.928182 366.7216 
L 240.557282 366.150078 
L 246.159585 365.357861 
L 251.726442 364.346173 
L 257.249258 363.116575 
L 262.719507 361.670967 
L 268.128744 360.011578 
L 273.468616 358.140973 
L 278.730882 356.062038 
L 283.907416 353.777983 
L 288.990226 351.292335 
L 293.971465 348.60893 
L 298.843444 345.731912 
L 303.59864 342.665722 
L 308.229712 339.415094 
L 312.72951 335.985047 
L 317.091088 332.380876 
L 321.307711 328.608145 
L 325.37287 324.672679 
L 329.280289 320.580554 
L 333.023934 316.338088 
L 336.598028 311.951829 
L 339.997051 307.428551 
L 343.215757 302.775236 
L 346.249175 297.999067 
L 349.092623 293.10742 
L 351.741711 288.107846 
L 354.192349 283.008064 
L 356.440754 277.815946 
L 358.483454 272.539509 
L 360.317295 267.1869 
L 361.939448 261.76638 
L 363.347406 256.28632 
L 364.538997 250.755179 
L 365.512381 245.181497 
L 366.266055 239.573879 
L 366.798856 233.940981 
L 367.10996 228.291501 
L 367.2 223.2 
L 367.2 223.2 
" clip-path="url(#pec936b124b)" style="fill: none; stroke: #ffffff; stroke-width: 10; stroke-linecap: square"/>
   </g>
   <g id="line2d_184">
    <path d="M 223.385729 223.50839 
L 223.62869 223.334832 
L 223.715885 223.011229 
L 223.584936 222.664445 
L 223.258699 222.422137 
L 222.826354 222.371441 
L 222.38227 222.542071 
L 222.038854 222.907164 
L 221.860047 223.421568 
L 221.894946 223.991964 
L 222.14975 224.54388 
L 222.602462 224.997518 
L 223.204037 225.291165 
L 223.913116 225.388412 
L 224.639551 225.266184 
L 225.338417 224.924125 
L 225.946166 224.375992 
L 226.407283 223.653426 
L 226.678992 222.801903 
L 226.73418 221.875668 
L 226.562461 220.932366 
L 226.16952 220.027965 
L 225.57506 219.212467 
L 224.809789 218.526705 
L 223.862947 217.978023 
L 222.812449 217.624371 
L 221.64533 217.472901 
L 220.462059 217.545916 
L 219.309489 217.831068 
L 218.164573 218.340493 
L 217.069079 219.081547 
L 216.120141 219.994144 
L 215.294364 221.10651 
L 214.665009 222.323565 
L 214.211872 223.687732 
L 213.974218 225.079444 
L 213.941175 226.555856 
L 214.132806 228.088613 
L 214.52892 229.541489 
L 215.145023 230.986032 
L 215.987207 232.390639 
L 217.057266 233.721796 
L 218.25246 234.86163 
L 219.635432 235.879552 
L 221.195988 236.746976 
L 222.919845 237.435765 
L 224.640158 237.889528 
L 226.466293 238.147783 
L 228.37763 238.191914 
L 230.350683 238.005262 
L 232.191196 237.61917 
L 234.039534 237.018123 
L 235.87205 236.195333 
L 237.663692 235.146449 
L 239.388235 233.869782 
L 241.018544 232.366509 
L 242.395524 230.806746 
L 243.650619 229.068614 
L 244.762769 227.159833 
L 245.711152 225.090441 
L 246.475426 222.872824 
L 247.035978 220.521736 
L 247.374178 218.054278 
L 247.474051 215.750068 
L 247.368085 213.383003 
L 247.045793 210.970213 
L 246.497991 208.530171 
L 245.716947 206.082616 
L 244.696533 203.648444 
L 243.432368 201.249593 
L 241.921947 198.90891 
L 240.372168 196.896205 
L 238.628447 194.965085 
L 236.69322 193.132807 
L 234.570356 191.416797 
L 232.265201 189.834539 
L 229.784615 188.403458 
L 227.136998 187.1408 
L 224.33231 186.0635 
L 221.382075 185.188054 
L 218.299385 184.530385 
L 215.098881 184.105703 
L 212.21447 183.936539 
L 209.263986 183.965767 
L 206.260052 184.201733 
L 203.216109 184.652063 
L 200.146385 185.323584 
L 197.065852 186.222258 
L 193.990183 187.353113 
L 190.935693 188.720175 
L 187.919289 190.326408 
L 184.9584 192.173647 
L 182.070914 194.262547 
L 179.275098 196.592523 
L 176.589524 199.161704 
L 174.389586 201.551852 
L 172.296357 204.11259 
L 170.321777 206.84034 
L 168.477765 209.730752 
L 166.77618 212.778693 
L 165.228765 215.978238 
L 163.847103 219.322663 
L 162.642566 222.804442 
L 161.626261 226.415246 
L 160.808982 230.145947 
L 160.201152 233.986622 
L 159.812774 237.926561 
L 159.653374 241.954285 
L 159.731951 246.057553 
L 160.056917 250.22339 
L 160.636049 254.438103 
L 161.476432 258.687312 
L 162.584409 262.955977 
L 163.96553 267.228432 
L 165.328536 270.779997 
L 166.886756 274.313218 
L 168.641992 277.818151 
L 170.595575 281.284624 
L 172.748349 284.702256 
L 175.100656 288.060483 
L 177.652318 291.348576 
L 180.402621 294.555665 
L 183.350302 297.670765 
L 186.493537 300.682802 
L 189.829924 303.580639 
L 193.356477 306.353101 
L 197.069613 308.98901 
L 200.965144 311.477206 
L 205.03827 313.806587 
L 209.283576 315.96613 
L 213.695019 317.944933 
L 218.265937 319.732237 
L 222.989038 321.31747 
L 227.856405 322.690271 
L 232.859495 323.840529 
L 237.989147 324.758417 
L 243.235585 325.434428 
L 248.588423 325.859405 
L 254.036678 326.024582 
L 259.56878 325.921616 
L 265.172581 325.54262 
L 269.698727 325.035698 
L 274.255884 324.343835 
L 278.837077 323.463714 
L 283.435125 322.39226 
L 288.042641 321.126645 
L 292.652044 319.664304 
L 297.255566 318.002941 
L 301.845259 316.140543 
L 306.413007 314.075389 
L 310.950534 311.806059 
L 315.449415 309.331445 
L 319.901084 306.650762 
L 324.296848 303.763552 
L 328.6279 300.669699 
L 332.885327 297.369432 
L 337.060124 293.863338 
L 341.143208 290.152364 
L 345.125432 286.237832 
L 348.997597 282.121436 
L 352.750469 277.805256 
L 356.374789 273.291762 
L 359.861294 268.583816 
L 359.861294 268.583816 
" clip-path="url(#pec936b124b)" style="fill: none; stroke: #ffffff; stroke-width: 10; stroke-linecap: square"/>
   </g>
  </g>
 </g>
 <defs>
  <clipPath id="pec936b124b">
   <rect x="1.44" y="1.44" width="443.52" height="443.52"/>
  </clipPath>
 </defs>
</svg>
