<?xml version="1.0" encoding="UTF-8"?>
<svg id="Layer_1" xmlns="http://www.w3.org/2000/svg" version="1.1" viewBox="0 0 1000 632">
  <!-- Generator: Adobe Illustrator 29.1.0, SVG Export Plug-In . SVG Version: 2.1.0 Build 142)  -->
  <defs>
    <style>
      .st0 {
        fill:rgb(255, 255, 255);
      }
    </style>
  </defs>
  <path class="st0" d="M762.7,354.16v-5.71c-.08,1.93-.1,3.83,0,5.71Z"/>
  <path class="st0" d="M111.28,303.24l99.52,63.25h0s6.04,3.84,6.04,3.84h0c0-33.73-17.35-65.09-45.92-83.02l-5.64-3.57c-.14-.09-.26-.18-.4-.27l-59.53-37.68-59.43-37.77h0c0,33.73,17.35,65.09,45.92,83.02l19.44,12.2Z"/>
  <path class="st0" d="M217.01,397.9l-25.49-15.99h0s-40.07-25.14-40.07-25.14l-59.62-37.89h0c0,33.73,17.35,65.09,45.92,83.02l19.47,12.21,59.62,37.89h0v-.33l21,13.35c-.91-1.57-1.8-3.15-2.65-4.74-10.56-19.62-16.54-40.14-18.17-62.38Z"/>
  <path class="st0" d="M835.12,283.48c-.14.09-.26.18-.4.27l-5.64,3.57c-28.57,17.93-45.92,49.29-45.92,83.02h0s6.04-3.84,6.04-3.84h0s99.52-63.25,99.52-63.25l19.44-12.2c28.57-17.93,45.92-49.29,45.92-83.02h0s-59.43,37.77-59.43,37.77l-59.53,37.68Z"/>
  <path class="st0" d="M808.48,381.91h0s-25.49,15.99-25.49,15.99c-1.64,22.24-7.62,42.76-18.17,62.38-.86,1.59-1.75,3.17-2.66,4.74l21-13.35v.33h0s59.62-37.89,59.62-37.89l19.47-12.21c28.57-17.93,45.92-49.29,45.92-83.02h0s-59.62,37.89-59.62,37.89l-40.07,25.14Z"/>
  <path class="st0" d="M934.62,138.57v.16s-140.3,89.16-142.56,90.61c-52.3,33.56-74.59,59.84-74.65,126.14,0,8.03,0,0,.06,32.13,0,.68-.04,1.39-.06,2.08-.29,12.23-3.3,25.42-10.77,39.3-9.63,17.89-24.44,33.53-42.83,45.21l-163.81,104.11-163.81-104.11c-18.39-11.69-33.2-27.32-42.83-45.21-7.47-13.88-10.49-27.06-10.77-39.3v-28.98c0-1.46,0-2.21,0-5.22.13-2.88.12-5.78,0-8.69v8.69c-.06-66.29-22.36-92.58-74.65-126.14-2.26-1.45-142.56-90.61-142.56-90.61v-.16L0,97.02h0c0,33.73,17.35,65.09,45.92,83.02l141.79,90.23c16.51,11.35,29.85,25.96,38.76,42.52,3.42,6.36,5.99,12.56,7.81,18.61,1.97,7.78,3.02,15.86,3.02,24.08h0v29.64c0,21.27,4.27,43.22,16.17,65.33,7.59,14.1,17.44,27.13,29.12,38.67,8.79,8.68,18.61,16.51,29.3,23.31l188.1,119.55,188.1-119.55c10.7-6.8,20.52-14.63,29.3-23.31,11.68-11.54,21.53-24.56,29.12-38.67,11.9-22.11,16.17-44.06,16.17-65.33v-29.64h0c0-8.22,1.05-16.3,3.02-24.08,1.82-6.05,4.39-12.25,7.81-18.61,8.91-16.55,22.26-31.16,38.76-42.52l141.79-90.23c28.57-17.93,45.92-49.29,45.92-83.02h0s-65.38,41.56-65.38,41.56ZM762.7,354.16c-.1-1.88-.08-3.79,0-5.71v5.71Z"/>
  <path class="st0" d="M445.27,188.99h109.46l23.89,20.77h12.94v-62.54h-68.92v-35.79c20.78-8.82,35.35-29.41,35.35-53.41C558,25.98,532.03.03,500,.03c-32.03,0-58,25.96-58,57.99,0,24,14.57,44.59,35.35,53.41v35.79h-68.92v62.54h12.94l23.89-20.77ZM500,31.02c14.89,0,27,12.11,27,27s-12.11,26.99-27,27c-14.89,0-27-12.11-27-27s12.11-27,27-27Z"/>
  <path class="st0" d="M326.48,403.91s6.79,49.29,82.52,75.18c70.44,24.08,91,66.01,91,66.01,0,0,20.56-41.93,91-66.01,75.73-25.89,82.52-75.18,82.52-75.18l11,20.17c29.34-62.35-11-126.52-11-126.52-9.17,67.85-64.18,91.68-64.18,91.68l33.01,1.83s-12.89,46.06-75.18,38.51c-.2-.02-.39-.05-.58-.07-19.95-2.62-35.27-18.99-37.11-39.03l-6.82-180.49h-45.3l-6.82,180.49c-1.84,20.03-17.17,36.4-37.11,39.03-.19.03-.39.05-.58.07-62.29,7.56-75.18-38.51-75.18-38.51l33.01-1.83s-55.01-23.84-64.18-91.68c0,0-40.34,64.18-11,126.52l11-20.17Z"/>
</svg>